<svg width="18" height="18" viewBox="0 0 18 18" fill="none" xmlns="http://www.w3.org/2000/svg">
<path d="M0.434431 17.5656C0.492477 17.6237 0.561407 17.6698 0.637281 17.7013C0.713154 17.7327 0.794484 17.7489 0.876618 17.7489C0.958753 17.7489 1.04008 17.7327 1.11596 17.7013C1.19183 17.6698 1.26076 17.6237 1.31881 17.5656L9.00005 9.88436L16.6844 17.5656C16.8017 17.6829 16.9608 17.7488 17.1266 17.7488C17.2925 17.7488 17.4515 17.6829 17.5688 17.5656C17.6861 17.4483 17.752 17.2893 17.752 17.1234C17.752 16.9576 17.6861 16.7985 17.5688 16.6812L9.88443 8.99998L17.5657 1.31561C17.683 1.19834 17.7488 1.03928 17.7488 0.873425C17.7488 0.707572 17.683 0.548513 17.5657 0.431237C17.4484 0.313962 17.2893 0.248077 17.1235 0.248077C16.9576 0.248077 16.7986 0.313962 16.6813 0.431237L9.00005 8.11561L1.31568 0.434362C1.19612 0.331971 1.04232 0.278467 0.885022 0.284543C0.727725 0.290619 0.578513 0.355826 0.467204 0.467135C0.355895 0.578444 0.290687 0.727656 0.284611 0.884954C0.278536 1.04225 0.332039 1.19605 0.434431 1.31561L8.11568 8.99998L0.434431 16.6844C0.318024 16.8015 0.252686 16.9599 0.252686 17.125C0.252686 17.2901 0.318024 17.4485 0.434431 17.5656Z" fill="#05173E"/>
</svg>
