<svg width="60" height="58" viewBox="0 0 60 58" fill="none" xmlns="http://www.w3.org/2000/svg">
<path fill-rule="evenodd" clip-rule="evenodd" d="M55.3116 35.8857C56.0116 35.8857 56.621 36.515 56.4222 37.1862C52.8536 49.2265 41.6137 57.9999 28.3289 57.9999C23.8345 58.0088 19.3982 56.9848 15.3625 55.0069C11.3267 53.029 7.79944 50.1501 5.05298 46.5925C4.93762 46.4409 4.8675 46.2598 4.85072 46.07C4.83394 45.8803 4.87118 45.6897 4.95815 45.5202C5.04512 45.3507 5.17826 45.2093 5.3422 45.1123C5.50613 45.0153 5.69417 44.9666 5.88458 44.972C6.05092 44.9728 6.21487 45.0117 6.36391 45.0856C6.51294 45.1595 6.64312 45.2664 6.74451 45.3983C9.29898 48.6858 12.5725 51.3446 16.3141 53.1705C20.0556 54.9965 24.1656 55.9412 28.3289 55.9322C40.727 55.9322 51.1884 47.7231 54.4681 36.4964C54.5242 36.3173 54.6366 36.1612 54.7886 36.0511C54.9406 35.9411 55.124 35.8831 55.3116 35.8857ZM55.3116 22.2374C56.0263 22.2374 56.6516 21.5976 56.4509 20.9118C52.9142 8.8215 41.6495 5.6586e-05 28.3289 5.6586e-05C24.309 -0.00783914 20.3303 0.810644 16.64 2.4047C12.9496 3.99875 9.62628 6.33435 6.87631 9.2665C6.74051 9.41252 6.65102 9.59551 6.61915 9.79236C6.58727 9.98921 6.61445 10.1911 6.69723 10.3725C6.78002 10.5539 6.91471 10.7067 7.08429 10.8117C7.25388 10.9166 7.45074 10.9689 7.65004 10.962C7.7999 10.9613 7.94804 10.9301 8.0854 10.8701C8.22275 10.8102 8.34642 10.7228 8.44882 10.6134C11.0038 7.90762 14.0857 5.75359 17.5048 4.284C20.9238 2.81441 24.6075 2.06038 28.3289 2.06836C40.782 2.06836 51.2809 10.3503 54.5113 21.6536C54.5636 21.8244 54.6698 21.9736 54.8141 22.0789C54.9584 22.1842 55.133 22.2398 55.3116 22.2374" fill="white"/>
<path d="M10.595 14.1053H11.5253V21.1832H10.595V17.9982H7.15722V21.1832H6.21697V14.1054H7.15722V17.1085H10.595V14.1053ZM18.9247 20.2428C18.2341 20.9294 17.2999 21.3147 16.3261 21.3147C15.3524 21.3147 14.4182 20.9294 13.7276 20.2428C13.047 19.5491 12.6657 18.6161 12.6657 17.6443C12.6657 16.6725 13.047 15.7395 13.7276 15.0458C14.417 14.3578 15.3514 13.9717 16.3253 13.9722C17.2993 13.9728 18.2332 14.3599 18.9218 15.0486C19.6105 15.7373 19.9977 16.6712 19.9982 17.6451C19.9987 18.6191 19.6126 19.5534 18.9247 20.2428ZM14.3747 19.6059C14.6289 19.8637 14.9332 20.0667 15.2688 20.2023C15.6044 20.3379 15.9643 20.4033 16.3262 20.3945C16.6867 20.4039 17.0451 20.3387 17.3792 20.203C17.7132 20.0673 18.0156 19.864 18.2674 19.6059C18.7734 19.0783 19.056 18.3755 19.056 17.6444C19.056 16.9133 18.7734 16.2105 18.2674 15.6828C18.0171 15.4221 17.7152 15.2164 17.381 15.0788C17.0468 14.9413 16.6875 14.875 16.3262 14.8841C15.9634 14.8755 15.6028 14.9421 15.267 15.0795C14.9312 15.217 14.6274 15.4224 14.3747 15.6828C13.8746 16.2135 13.5961 16.9152 13.5961 17.6444C13.5961 18.3736 13.8746 19.0752 14.3747 19.6059ZM25.1713 17.5128C25.4848 17.6591 25.7509 17.8904 25.9397 18.1802C26.1371 18.4763 26.2394 18.8255 26.233 19.1813C26.2388 19.4474 26.1887 19.7118 26.0859 19.9574C25.9832 20.2029 25.83 20.4242 25.6364 20.6068C25.4444 20.7951 25.2167 20.9431 24.9666 21.0421C24.7166 21.1411 24.4493 21.1891 24.1805 21.1832H21.1268V14.1053H23.958C24.2175 14.0997 24.4755 14.1461 24.7168 14.2416C24.9582 14.3371 25.178 14.4799 25.3634 14.6616C25.5504 14.8377 25.6983 15.0511 25.7975 15.2879C25.8968 15.5248 25.9452 15.7799 25.9397 16.0366C25.9486 16.3279 25.8826 16.6165 25.7481 16.8749C25.6135 17.1334 25.415 17.353 25.1713 17.5128V17.5128ZM23.958 14.9851H22.0673V17.149H23.958C24.0976 17.1519 24.2364 17.1255 24.3653 17.0715C24.4941 17.0175 24.6102 16.9371 24.7061 16.8354C24.8054 16.7341 24.8834 16.6139 24.9355 16.4819C24.9876 16.3499 25.0128 16.2089 25.0095 16.067C25.0118 15.9259 24.9852 15.7858 24.9313 15.6554C24.8774 15.525 24.7974 15.407 24.6961 15.3087C24.6033 15.2052 24.4894 15.1228 24.3621 15.067C24.2347 15.0112 24.097 14.9833 23.958 14.9852V14.9851ZM24.1805 20.3035C24.3295 20.3067 24.4776 20.2787 24.6151 20.2212C24.7527 20.1638 24.8767 20.0782 24.9792 19.9699C25.0851 19.8619 25.1683 19.7338 25.2239 19.5932C25.2795 19.4525 25.3063 19.3021 25.3028 19.1509C25.3054 19.0004 25.2771 18.851 25.2197 18.7119C25.1623 18.5727 25.077 18.4468 24.969 18.3419C24.8682 18.2344 24.7459 18.1491 24.6101 18.0916C24.4742 18.0341 24.3279 18.0057 24.1805 18.0082H22.0673V20.3035H24.1805ZM31.7458 21.1833V15.9052L28.1057 21.1832H27.3474V14.1054H28.2878V19.3936L31.9277 14.1054H32.6861V21.1832L31.7458 21.1833ZM38.5783 14.1054H39.5085V21.1832H38.5783V17.9982H35.1405V21.1832H34.2002V14.1054H35.1405V17.1085H38.5783V14.1054ZM45.4214 21.1833V15.9052L41.7813 21.1832H41.0232V14.1054H41.9634V19.3936L45.6033 14.1054H46.3617V21.1832L45.4214 21.1833Z" fill="white"/>
<path d="M55.4768 33.1416C56.2949 33.1416 57.0946 32.8991 57.7748 32.4446C58.4551 31.9901 58.9852 31.3441 59.2983 30.5883C59.6114 29.8324 59.6933 29.0008 59.5337 28.1984C59.3741 27.396 58.9802 26.659 58.4017 26.0805C57.8232 25.502 57.0862 25.1081 56.2838 24.9485C55.4814 24.7889 54.6498 24.8708 53.894 25.1839C53.1381 25.497 52.4921 26.0271 52.0376 26.7074C51.5832 27.3876 51.3406 28.1873 51.3406 29.0054C51.3406 30.1024 51.7764 31.1544 52.5521 31.9301C53.3278 32.7058 54.3798 33.1416 55.4768 33.1416Z" fill="white"/>
<path d="M4.91721 36.3374H10.5722V41.1071H0V23.8966H4.91721V36.3374ZM11.816 23.8966H16.7334V41.1071H11.816V23.8966ZM23.1968 41.1071L17.714 23.8966H23.123L25.9505 34.8376L28.7779 23.8966H34.1869L28.7041 41.1071H23.1968ZM40.0851 36.5832H46.4776V41.1071H35.1677V23.8966H46.3546V28.3714H40.0851V30.24H45.7399V34.6656H40.0851V36.5832Z" fill="white"/>
</svg>
